<svg height="128" width="128" xmlns="http://www.w3.org/2000/svg">
  <rect x="2" y="2" width="124" height="124" rx="14" fill="#363d52" stroke="#212532" stroke-width="4"/>
  <g transform="translate(20, 20)">
    <!-- Dungeon door shape -->
    <rect x="22" y="20" width="44" height="60" rx="4" fill="#1a1a2e"/>
    <rect x="24" y="22" width="40" height="56" rx="2" fill="#16213e"/>
    <!-- Door arch -->
    <path d="M24 22 Q44 5 64 22" fill="#1a1a2e" stroke="#0f0f1a" stroke-width="2"/>
    <!-- Door details -->
    <rect x="30" y="30" width="12" height="20" rx="1" fill="#0f0f1a"/>
    <rect x="46" y="30" width="12" height="20" rx="1" fill="#0f0f1a"/>
    <!-- Door handle -->
    <circle cx="54" cy="55" r="3" fill="#e94560"/>
    <!-- Torch left -->
    <rect x="8" y="35" width="6" height="25" fill="#8b4513"/>
    <ellipse cx="11" cy="32" rx="5" ry="8" fill="#ff6b35"/>
    <ellipse cx="11" cy="30" rx="3" ry="5" fill="#ffa500"/>
    <!-- Torch right -->
    <rect x="74" y="35" width="6" height="25" fill="#8b4513"/>
    <ellipse cx="77" cy="32" rx="5" ry="8" fill="#ff6b35"/>
    <ellipse cx="77" cy="30" rx="3" ry="5" fill="#ffa500"/>
  </g>
</svg>
